<svg width="17" height="15" viewBox="0 0 17 15" fill="none" xmlns="http://www.w3.org/2000/svg">
<path fill-rule="evenodd" clip-rule="evenodd" d="M2.72864 0.604575C2.52783 0.403762 2.23514 0.325336 1.96082 0.398838C1.68651 0.472341 1.47224 0.686606 1.39874 0.960922C1.32524 1.23524 1.40366 1.52793 1.60447 1.72874L6.06156 6.18583C5.48253 7.26296 5.67812 8.59232 6.54284 9.45704C7.40757 10.3218 8.73692 10.5173 9.81406 9.93832L14.2711 14.3954C14.4198 14.5453 14.6221 14.6296 14.8332 14.6296C15.0443 14.6296 15.2467 14.5453 15.3953 14.3954C15.5452 14.2468 15.6295 14.0444 15.6295 13.8333C15.6295 13.6222 15.5452 13.4199 15.3953 13.2712L2.72864 0.604575ZM8.49989 8.68749C7.84405 8.68749 7.31239 8.15583 7.31239 7.49999V7.44458L8.54739 8.67957L8.49989 8.68749ZM16.3136 7.10416C15.807 6.22541 13.0124 1.81583 8.28614 1.95833C7.40933 1.98433 6.54387 2.16386 5.72906 2.48874L6.97989 3.73958C7.41977 3.62386 7.87116 3.55748 8.32572 3.54166C11.722 3.45458 13.9545 6.38374 14.6591 7.49999C14.1509 8.29347 13.5414 9.01735 12.8461 9.65333L14.0416 10.7696C14.9463 9.92987 15.7225 8.96158 16.3453 7.89583C16.4771 7.64526 16.465 7.3434 16.3136 7.10416ZM8.67406 11.4583C5.26989 11.5375 3.03739 8.61624 2.34072 7.49999C2.83668 6.70887 3.43272 5.98511 4.11406 5.34666L2.95822 4.23041C2.06469 5.07232 1.29921 6.0405 0.686141 7.10416C0.544724 7.3491 0.544724 7.65088 0.686141 7.89583C1.18489 8.75874 3.85281 13.0417 8.51572 13.0417H8.71364C9.59045 13.0156 10.4559 12.8361 11.2707 12.5112L10.0199 11.2604C9.58002 11.3761 9.12862 11.4425 8.67406 11.4583Z" fill="#7C8187"/>
</svg>
