<svg width="130" height="12" viewBox="0 0 130 12" fill="none" xmlns="http://www.w3.org/2000/svg">
<path d="M0.75 11C0.825 10.44 0.8975 9.88 0.9675 9.32C1.0375 8.76 1.1125 8.1525 1.1925 7.4975L1.635 3.9125C1.72 3.2675 1.7975 2.6575 1.8675 2.0825C1.9375 1.5075 2.01 0.915 2.085 0.304999H4.5825C4.8225 0.915 5.05 1.5 5.265 2.06C5.485 2.615 5.7025 3.1675 5.9175 3.7175L7.1925 6.9875H7.3575L8.595 3.725C8.805 3.17 9.0125 2.62 9.2175 2.075C9.4275 1.53 9.6475 0.94 9.8775 0.304999H12.345C12.42 0.904999 12.4925 1.4925 12.5625 2.0675C12.6375 2.6425 12.7175 3.26 12.8025 3.92L13.26 7.52C13.34 8.17 13.415 8.77 13.485 9.32C13.56 9.87 13.6325 10.43 13.7025 11H11.355C11.265 10.25 11.1775 9.5375 11.0925 8.8625C11.0075 8.1875 10.93 7.555 10.86 6.965L10.545 4.43H10.38L9.45 7.1525C9.225 7.8225 8.9975 8.4875 8.7675 9.1475C8.5425 9.8025 8.3325 10.42 8.1375 11H6.5025C6.3625 10.625 6.21 10.2225 6.045 9.7925C5.885 9.3625 5.72 8.925 5.55 8.48C5.38 8.03 5.2125 7.59 5.0475 7.16L4.0125 4.43H3.8475L3.54 6.95C3.47 7.545 3.3925 8.1825 3.3075 8.8625C3.2275 9.5375 3.1425 10.25 3.0525 11H0.75ZM19.773 11C19.963 10.425 20.1605 9.82 20.3655 9.185C20.5755 8.55 20.773 7.9475 20.958 7.3775L22.1655 3.71C22.3805 3.045 22.5755 2.4475 22.7505 1.9175C22.9255 1.3825 23.1005 0.844999 23.2755 0.304999H26.4555C26.6355 0.865 26.8105 1.41 26.9805 1.94C27.1555 2.47 27.3505 3.06 27.5655 3.71L28.758 7.385C28.953 7.975 29.1505 8.5825 29.3505 9.2075C29.5555 9.8325 29.7505 10.43 29.9355 11H27.3855C27.2255 10.43 27.0605 9.8475 26.8905 9.2525C26.7205 8.6525 26.558 8.085 26.403 7.55L24.933 2.3975H24.753L23.268 7.4975C23.108 8.0525 22.938 8.635 22.758 9.245C22.583 9.85 22.413 10.435 22.248 11H19.773ZM22.353 8.765L22.6155 6.92H27.393L27.603 8.765H22.353ZM36.2893 11C36.2893 10.425 36.2893 9.8675 36.2893 9.3275C36.2893 8.7875 36.2893 8.1825 36.2893 7.5125V3.8825C36.2893 3.1925 36.2893 2.57 36.2893 2.015C36.2893 1.46 36.2893 0.89 36.2893 0.304999C36.6143 0.304999 36.9968 0.304999 37.4368 0.304999C37.8818 0.304999 38.3568 0.304999 38.8618 0.304999C39.3668 0.304999 39.8768 0.304999 40.3918 0.304999C41.2618 0.304999 41.9968 0.402499 42.5968 0.597499C43.2018 0.787499 43.6593 1.1075 43.9693 1.5575C44.2843 2.0075 44.4418 2.62 44.4418 3.395C44.4418 4.01 44.3193 4.5625 44.0743 5.0525C43.8343 5.5425 43.4468 5.93 42.9118 6.215C42.3768 6.5 41.6768 6.6425 40.8118 6.6425L41.7643 5.7425L43.2193 7.8875C43.4443 8.2175 43.6843 8.5725 43.9393 8.9525C44.1943 9.3275 44.4418 9.695 44.6818 10.055C44.9268 10.41 45.1418 10.725 45.3268 11H42.5293C42.2593 10.58 41.9993 10.1775 41.7493 9.7925C41.4993 9.4075 41.2568 9.0325 41.0218 8.6675L39.2893 5.9375L40.7518 7.055H38.2693V5.2925H40.0543C40.4543 5.2925 40.7893 5.245 41.0593 5.15C41.3343 5.05 41.5418 4.8825 41.6818 4.6475C41.8218 4.4125 41.8918 4.09 41.8918 3.68C41.8918 3.375 41.8468 3.13 41.7568 2.945C41.6668 2.755 41.5443 2.6075 41.3893 2.5025C41.2393 2.3975 41.0693 2.3275 40.8793 2.2925C40.6943 2.2575 40.5068 2.24 40.3168 2.24H36.9568L38.7118 0.694999C38.7118 1.3 38.7118 1.88 38.7118 2.435C38.7118 2.985 38.7118 3.5975 38.7118 4.2725V7.5125C38.7118 8.1825 38.7118 8.7875 38.7118 9.3275C38.7118 9.8675 38.7118 10.425 38.7118 11H36.2893ZM57.8254 11C57.4954 10.525 57.1829 10.08 56.8879 9.665C56.5979 9.245 56.3129 8.8325 56.0329 8.4275L54.6229 6.41H53.9329V4.475H54.5929L55.8529 2.825C56.1529 2.435 56.4504 2.0475 56.7454 1.6625C57.0404 1.2725 57.3829 0.819999 57.7729 0.304999H60.6154C60.1504 0.869999 59.6954 1.425 59.2504 1.97C58.8104 2.515 58.3679 3.065 57.9229 3.62L56.2279 5.7125L56.1829 4.625L58.0654 7.2275C58.3554 7.6275 58.6654 8.0575 58.9954 8.5175C59.3304 8.9775 59.6554 9.425 59.9704 9.86C60.2854 10.295 60.5629 10.675 60.8029 11H57.8254ZM51.6679 11C51.6679 10.425 51.6679 9.8675 51.6679 9.3275C51.6679 8.7875 51.6679 8.1825 51.6679 7.5125V3.8825C51.6679 3.1925 51.6679 2.57 51.6679 2.015C51.6679 1.46 51.6679 0.89 51.6679 0.304999H54.1279C54.1279 0.89 54.1279 1.46 54.1279 2.015C54.1279 2.57 54.1279 3.1925 54.1279 3.8825V7.5125C54.1279 8.1825 54.1279 8.7875 54.1279 9.3275C54.1279 9.8675 54.1279 10.425 54.1279 11H51.6679ZM67.1415 11C67.1415 10.425 67.1415 9.8675 67.1415 9.3275C67.1415 8.7875 67.1415 8.1825 67.1415 7.5125V3.8825C67.1415 3.1925 67.1415 2.57 67.1415 2.015C67.1415 1.46 67.1415 0.89 67.1415 0.304999C67.5615 0.304999 68.0015 0.304999 68.4615 0.304999C68.9265 0.304999 69.404 0.304999 69.894 0.304999C70.389 0.304999 70.889 0.304999 71.394 0.304999C72.209 0.304999 72.934 0.422499 73.569 0.657499C74.204 0.8925 74.739 1.2375 75.174 1.6925C75.614 2.1475 75.949 2.705 76.179 3.365C76.409 4.02 76.524 4.77 76.524 5.615C76.524 6.37 76.4215 7.075 76.2165 7.73C76.0165 8.38 75.694 8.95 75.249 9.44C74.809 9.93 74.2265 10.3125 73.5015 10.5875C72.7765 10.8625 71.8915 11 70.8465 11C70.3665 11 69.9165 11 69.4965 11C69.0765 11 68.674 11 68.289 11C67.904 11 67.5215 11 67.1415 11ZM69.609 9.0275H70.839C71.609 9.0275 72.219 8.8775 72.669 8.5775C73.124 8.2775 73.4515 7.8675 73.6515 7.3475C73.8515 6.8275 73.9515 6.24 73.9515 5.585C73.9515 5.09 73.8915 4.64 73.7715 4.235C73.6565 3.83 73.4765 3.4825 73.2315 3.1925C72.9915 2.8975 72.684 2.6725 72.309 2.5175C71.934 2.3575 71.4865 2.2775 70.9665 2.2775H69.609C69.609 2.6125 69.609 2.9525 69.609 3.2975C69.609 3.6375 69.609 4.025 69.609 4.46V6.92C69.609 7.335 69.609 7.71 69.609 8.045C69.609 8.38 69.609 8.7075 69.609 9.0275ZM88.2425 11.2025C87.2775 11.2025 86.4425 11.055 85.7375 10.76C85.0325 10.46 84.4525 10.0525 83.9975 9.5375C83.5425 9.0175 83.2025 8.425 82.9775 7.76C82.7575 7.095 82.6475 6.395 82.6475 5.66C82.6475 4.62 82.8525 3.68 83.2625 2.84C83.6775 1.995 84.2925 1.325 85.1075 0.83C85.9275 0.335 86.95 0.0874997 88.175 0.0874997C89.105 0.0874997 89.9175 0.2325 90.6125 0.522499C91.3075 0.8075 91.885 1.205 92.345 1.715C92.81 2.225 93.1575 2.815 93.3875 3.485C93.6175 4.155 93.7325 4.875 93.7325 5.645C93.7325 6.71 93.52 7.66 93.095 8.495C92.675 9.33 92.0575 9.99 91.2425 10.475C90.4275 10.96 89.4275 11.2025 88.2425 11.2025ZM88.205 9.17C88.7 9.17 89.1325 9.0775 89.5025 8.8925C89.8725 8.7025 90.18 8.4425 90.425 8.1125C90.67 7.7825 90.8525 7.4075 90.9725 6.9875C91.0975 6.5625 91.16 6.115 91.16 5.645C91.16 5.15 91.0925 4.69 90.9575 4.265C90.8275 3.835 90.635 3.46 90.38 3.14C90.13 2.82 89.8225 2.57 89.4575 2.39C89.0925 2.21 88.675 2.12 88.205 2.12C87.72 2.12 87.29 2.2125 86.915 2.3975C86.545 2.5825 86.235 2.84 85.985 3.17C85.735 3.495 85.545 3.87 85.415 4.295C85.285 4.72 85.22 5.17 85.22 5.645C85.22 6.12 85.2825 6.57 85.4075 6.995C85.5325 7.415 85.7175 7.79 85.9625 8.12C86.2125 8.445 86.5225 8.7025 86.8925 8.8925C87.2675 9.0775 87.705 9.17 88.205 9.17ZM102.108 11C101.968 10.47 101.818 9.905 101.658 9.305C101.498 8.7 101.348 8.14 101.208 7.625L100.323 4.265C100.163 3.67 99.9877 3.02 99.7977 2.315C99.6127 1.605 99.4377 0.934999 99.2727 0.304999H102.055C102.19 0.959999 102.333 1.65 102.483 2.375C102.633 3.095 102.775 3.78 102.91 4.43L103.653 8.0675H103.84L104.605 4.385C104.695 3.965 104.788 3.5225 104.883 3.0575C104.983 2.5875 105.083 2.1175 105.183 1.6475C105.283 1.1775 105.378 0.729999 105.468 0.304999H108.1C108.24 0.959999 108.385 1.6425 108.535 2.3525C108.69 3.0575 108.84 3.74 108.985 4.4L109.78 8.0675H109.96L110.718 4.3775C110.848 3.7475 110.985 3.07 111.13 2.345C111.28 1.62 111.42 0.94 111.55 0.304999H114.34C114.165 0.94 113.983 1.6075 113.793 2.3075C113.608 3.0075 113.435 3.6525 113.275 4.2425L112.36 7.625C112.215 8.155 112.063 8.72 111.903 9.32C111.743 9.92 111.59 10.48 111.445 11H108.445C108.305 10.4 108.158 9.7725 108.003 9.1175C107.848 8.4575 107.703 7.83 107.568 7.235L106.773 3.845H106.585L105.82 7.235C105.69 7.825 105.548 8.4525 105.393 9.1175C105.243 9.7825 105.1 10.41 104.965 11H102.108ZM120.711 11C120.711 10.425 120.711 9.8675 120.711 9.3275C120.711 8.7875 120.711 8.1825 120.711 7.5125V3.8825C120.711 3.1925 120.711 2.57 120.711 2.015C120.711 1.46 120.711 0.89 120.711 0.304999H122.863C123.363 1.035 123.836 1.725 124.281 2.375C124.726 3.02 125.171 3.6675 125.616 4.3175L127.356 6.8375H127.536V3.8825C127.536 3.1925 127.536 2.57 127.536 2.015C127.536 1.46 127.536 0.89 127.536 0.304999H129.853C129.853 0.89 129.853 1.46 129.853 2.015C129.853 2.57 129.853 3.1925 129.853 3.8825V7.5125C129.853 8.1825 129.853 8.7875 129.853 9.3275C129.853 9.8675 129.853 10.425 129.853 11H127.723C127.313 10.4 126.883 9.775 126.433 9.125C125.983 8.475 125.491 7.765 124.956 6.995L123.193 4.445H123.021V7.5125C123.021 8.1825 123.021 8.7875 123.021 9.3275C123.021 9.8675 123.021 10.425 123.021 11H120.711Z" fill="white"/>
</svg>
