<svg width="30" height="11" viewBox="0 0 30 11" fill="none" xmlns="http://www.w3.org/2000/svg">
<path d="M0.75 11C0.825 10.44 0.8975 9.88 0.9675 9.32C1.0375 8.76 1.1125 8.1525 1.1925 7.4975L1.635 3.9125C1.72 3.2675 1.7975 2.6575 1.8675 2.0825C1.9375 1.5075 2.01 0.915 2.085 0.304999H4.5825C4.8225 0.915 5.05 1.5 5.265 2.06C5.485 2.615 5.7025 3.1675 5.9175 3.7175L7.1925 6.9875H7.3575L8.595 3.725C8.805 3.17 9.0125 2.62 9.2175 2.075C9.4275 1.53 9.6475 0.94 9.8775 0.304999H12.345C12.42 0.904999 12.4925 1.4925 12.5625 2.0675C12.6375 2.6425 12.7175 3.26 12.8025 3.92L13.26 7.52C13.34 8.17 13.415 8.77 13.485 9.32C13.56 9.87 13.6325 10.43 13.7025 11H11.355C11.265 10.25 11.1775 9.5375 11.0925 8.8625C11.0075 8.1875 10.93 7.555 10.86 6.965L10.545 4.43H10.38L9.45 7.1525C9.225 7.8225 8.9975 8.4875 8.7675 9.1475C8.5425 9.8025 8.3325 10.42 8.1375 11H6.5025C6.3625 10.625 6.21 10.2225 6.045 9.7925C5.885 9.3625 5.72 8.925 5.55 8.48C5.38 8.03 5.2125 7.59 5.0475 7.16L4.0125 4.43H3.8475L3.54 6.95C3.47 7.545 3.3925 8.1825 3.3075 8.8625C3.2275 9.5375 3.1425 10.25 3.0525 11H0.75ZM20.5155 11C20.5155 10.425 20.5155 9.8675 20.5155 9.3275C20.5155 8.7875 20.5155 8.1825 20.5155 7.5125V3.8825C20.5155 3.1925 20.5155 2.57 20.5155 2.015C20.5155 1.46 20.5155 0.89 20.5155 0.304999C20.9355 0.304999 21.3755 0.304999 21.8355 0.304999C22.3005 0.304999 22.778 0.304999 23.268 0.304999C23.763 0.304999 24.263 0.304999 24.768 0.304999C25.583 0.304999 26.308 0.422499 26.943 0.657499C27.578 0.8925 28.113 1.2375 28.548 1.6925C28.988 2.1475 29.323 2.705 29.553 3.365C29.783 4.02 29.898 4.77 29.898 5.615C29.898 6.37 29.7955 7.075 29.5905 7.73C29.3905 8.38 29.068 8.95 28.623 9.44C28.183 9.93 27.6005 10.3125 26.8755 10.5875C26.1505 10.8625 25.2655 11 24.2205 11C23.7405 11 23.2905 11 22.8705 11C22.4505 11 22.048 11 21.663 11C21.278 11 20.8955 11 20.5155 11ZM22.983 9.0275H24.213C24.983 9.0275 25.593 8.8775 26.043 8.5775C26.498 8.2775 26.8255 7.8675 27.0255 7.3475C27.2255 6.8275 27.3255 6.24 27.3255 5.585C27.3255 5.09 27.2655 4.64 27.1455 4.235C27.0305 3.83 26.8505 3.4825 26.6055 3.1925C26.3655 2.8975 26.058 2.6725 25.683 2.5175C25.308 2.3575 24.8605 2.2775 24.3405 2.2775H22.983C22.983 2.6125 22.983 2.9525 22.983 3.2975C22.983 3.6375 22.983 4.025 22.983 4.46V6.92C22.983 7.335 22.983 7.71 22.983 8.045C22.983 8.38 22.983 8.7075 22.983 9.0275Z" fill="white"/>
</svg>
