<?xml version="1.0" encoding="UTF-8"?>
<!DOCTYPE svg PUBLIC "-//W3C//DTD SVG 1.1//EN" "http://www.w3.org/Graphics/SVG/1.1/DTD/svg11.dtd">
<svg xmlns="http://www.w3.org/2000/svg" version="1.1" width="18" height="66" viewBox="0 0 18 66">
    <g id="save">
        <path fill-rule="evenodd" clip-rule="evenodd" d="M10.4089 0.257778L15.7422 5.59111C15.9086 5.75886 16.0014 5.98595 16 6.22222V13.3333C16 14.8061 14.8061 16 13.3333 16H2.66667C1.19391 16 0 14.8061 0 13.3333V2.66667C0 1.19391 1.19391 0 2.66667 0H9.77778C9.89672 0.00222051 10.0142 0.0263262 10.1244 0.0711111C10.2304 0.114438 10.327 0.177821 10.4089 0.257778ZM8.88889 1.77778H5.33333V3.55556H8.88889V1.77778ZM10.6667 14.2222H5.33333V11.5556C5.33333 11.0646 5.7313 10.6667 6.22222 10.6667H9.77778C10.2687 10.6667 10.6667 11.0646 10.6667 11.5556V14.2222ZM13.3333 14.2222C13.8243 14.2222 14.2222 13.8243 14.2222 13.3333V6.58667L10.6667 3.03111V4.44444C10.6667 4.93536 10.2687 5.33333 9.77778 5.33333H4.44444C3.95352 5.33333 3.55556 4.93536 3.55556 4.44444V1.77778H2.66667C2.17575 1.77778 1.77778 2.17575 1.77778 2.66667V13.3333C1.77778 13.8243 2.17575 14.2222 2.66667 14.2222H3.55556V11.5556C3.55556 10.0828 4.74946 8.88889 6.22222 8.88889H9.77778C11.2505 8.88889 12.4444 10.0828 12.4444 11.5556V14.2222H13.3333Z" fill="white"/>
    </g>
    <g id="file" transform="translate(0, 16)">
        <path fill-rule="evenodd" clip-rule="evenodd" d="M13.1071 3.39286C13.2738 3.55952 13.4167 3.78571 13.5357 4.07143C13.6548 4.35714 13.7143 4.61905 13.7143 4.85714V15.1429C13.7143 15.381 13.631 15.5833 13.4643 15.75C13.2976 15.9167 13.0952 16 12.8571 16H0.857143C0.619048 16 0.416667 15.9167 0.25 15.75C0.0833333 15.5833 0 15.381 0 15.1429V0.857143C0 0.619048 0.0833333 0.416667 0.25 0.25C0.416667 0.0833333 0.619048 0 0.857143 0H8.85714C9.09524 0 9.35714 0.0595238 9.64286 0.178571C9.92857 0.297619 10.1548 0.440476 10.3214 0.607143L13.1071 3.39286ZM9.14286 1.21429V4.57143H12.5C12.4405 4.39881 12.375 4.27679 12.3036 4.20536L9.50893 1.41071C9.4375 1.33929 9.31548 1.27381 9.14286 1.21429ZM12.5714 5.71429V14.8571H1.14286V1.14286H8V4.85714C8 5.09524 8.08333 5.29762 8.25 5.46429C8.41667 5.63095 8.61905 5.71429 8.85714 5.71429H12.5714Z" fill="white"/>
    </g>
    <g id="dark-mode" transform="translate(0, 32)">
        <path fill-rule="evenodd" clip-rule="evenodd" d="M15.2774 8.68879C15.5637 8.55901 15.8989 8.6037 16.1411 8.80395C16.4053 9.00561 16.5221 9.34637 16.4373 9.66766C15.4983 13.4521 12.0626 16.0811 8.16423 15.9981C4.26587 15.9151 0.945195 13.1423 0.16809 9.32131C-0.609014 5.50029 1.36484 1.65074 4.92111 0.0516606C5.20021 -0.0522001 5.51366 0.00290056 5.7406 0.195721C5.96755 0.388541 6.07256 0.688966 6.01515 0.98118C5.88228 1.5196 5.81325 2.07179 5.8095 2.62635C5.8321 6.30962 8.82199 9.28482 12.5053 9.28927C13.4619 9.29168 14.4076 9.08682 15.2774 8.68879ZM2.05332 9.82159C2.98704 12.4917 5.49798 14.2871 8.32661 14.307V14.3399C10.8022 14.343 13.0759 12.975 14.2328 10.7864C13.6652 10.9088 13.086 10.9695 12.5053 10.9673C7.9006 10.9628 4.16887 7.23107 4.16433 2.62635V2.40425C1.96456 4.18258 1.1196 7.15144 2.05332 9.82159Z" fill="#5A6069"/>
    </g>
    <g id="light-mode" transform="translate(0, 48)">
        <path fill-rule="evenodd" clip-rule="evenodd" d="M9 2.7C9.49706 2.7 9.9 2.29706 9.9 1.8V0.9C9.9 0.402944 9.49706 0 9 0C8.50294 0 8.1 0.402944 8.1 0.9V1.8C8.1 2.29706 8.50294 2.7 9 2.7ZM1.8 8.1C2.29706 8.1 2.7 8.50294 2.7 9C2.7 9.49706 2.29706 9.9 1.8 9.9H0.9C0.402944 9.9 0 9.49706 0 9C0 8.50294 0.402944 8.1 0.9 8.1H1.8ZM2.637 14.139L3.276 13.5C3.63308 13.1942 4.16537 13.2148 4.49781 13.5472C4.83024 13.8796 4.8508 14.4119 4.545 14.769L3.906 15.408C3.55497 15.757 2.98803 15.757 2.637 15.408C2.28805 15.057 2.28805 14.49 2.637 14.139ZM14.724 4.545C14.5564 4.71127 14.3301 4.80501 14.094 4.806C13.8704 4.79588 13.6587 4.70283 13.5 4.545C13.151 4.19397 13.151 3.62703 13.5 3.276L14.094 2.637C14.314 2.38016 14.6593 2.26829 14.9881 2.34737C15.3168 2.42646 15.5735 2.68315 15.6526 3.01192C15.7317 3.34069 15.6198 3.68605 15.363 3.906L14.724 4.545ZM3.294 4.545C3.46163 4.71127 3.68789 4.80501 3.924 4.806C4.16322 4.80738 4.39315 4.71347 4.563 4.545C4.91195 4.19397 4.91195 3.62703 4.563 3.276L3.924 2.637C3.69732 2.4071 3.3652 2.3156 3.05276 2.39696C2.74031 2.47833 2.49501 2.7202 2.40926 3.03146C2.3235 3.34273 2.41032 3.6761 2.637 3.906L3.294 4.545ZM16.2 8.1H17.1C17.5971 8.1 18 8.50294 18 9C18 9.49706 17.5971 9.9 17.1 9.9H16.2C15.7029 9.9 15.3 9.49706 15.3 9C15.3 8.50294 15.7029 8.1 16.2 8.1ZM14.724 13.5C14.3727 13.3046 13.9344 13.3659 13.6501 13.6501C13.3659 13.9344 13.3046 14.3727 13.5 14.724L14.139 15.363C14.49 15.712 15.057 15.712 15.408 15.363C15.757 15.012 15.757 14.445 15.408 14.094L14.724 13.5ZM4.05 9C4.05 6.26619 6.26619 4.05 9 4.05C11.7318 4.05495 13.945 6.26824 13.95 9C13.95 11.7338 11.7338 13.95 9 13.95C6.26619 13.95 4.05 11.7338 4.05 9ZM9 12.15C7.72594 12.15 6.57734 11.3825 6.08978 10.2055C5.60222 9.02838 5.87172 7.67351 6.77261 6.77261C7.67351 5.87172 9.02838 5.60222 10.2055 6.08978C11.3825 6.57734 12.15 7.72594 12.15 9C12.15 10.7397 10.7397 12.15 9 12.15ZM8.1 16.2C8.1 15.7029 8.50294 15.3 9 15.3C9.49706 15.3 9.9 15.7029 9.9 16.2V17.1C9.9 17.5971 9.49706 18 9 18C8.50294 18 8.1 17.5971 8.1 17.1V16.2Z" fill="white"/>
    </g>
</svg>
